<svg width="220" height="64" viewBox="0 0 220 64" fill="none" xmlns="http://www.w3.org/2000/svg">
  <rect x="2" y="6" width="52" height="52" rx="16" fill="url(#paint0_linear)"/>

  <path d="M16 39V18H29C35 18 39 22 39 28C39 34 35 38 29 38H23V39H16ZM23 32H28C31 32 32 30 32 28C32 26 31 24 28 24H23V32Z" fill="white"/>

  <path d="M38 39L45 28L39 18H47L50 24L54 18H62L55 28L63 39H55L50 32L46 39H38Z" fill="white"/>

  <text
    x="74"
    y="31"
    fill="#020617"
    font-family="Arial"
    font-size="24"
    font-weight="900"
  >
    MyPX
  </text>

  <text
    x="74"
    y="47"
    fill="#64748B"
    font-family="Arial"
    font-size="12"
    font-weight="700"
  >
    Portfolio Intelligence
  </text>

  <defs>
    <linearGradient id="paint0_linear" x1="9" y1="11" x2="51" y2="56" gradientUnits="userSpaceOnUse">
      <stop stop-color="#7C3AED"/>
      <stop offset="0.48" stop-color="#D946EF"/>
      <stop offset="1" stop-color="#22D3EE"/>
    </linearGradient>
  </defs>
</svg>